<!-- Generated by IcoMoon.io -->
<svg version="1.1" xmlns="http://www.w3.org/2000/svg" width="878" height="1024" viewBox="0 0 878 1024">
<title></title>
<g id="icomoon-ignore">
</g>
<path d="M439.108 294.249c-117.953 0-213.857 95.941-213.857 213.82 0 117.913 95.904 213.853 213.857 213.853 117.844 0 213.82-95.941 213.82-213.853-0.004-117.88-95.978-213.82-213.82-213.82zM502.389 393.084c11.075 0 19.974 19.224 19.974 42.949 0 23.692-8.898 42.952-19.974 42.952-11.042 0-20.011-19.26-20.011-42.952 0-23.725 8.968-42.949 20.011-42.949zM375.753 393.084c11.082 0 20.011 19.224 20.011 42.949 0 23.692-8.931 42.952-20.011 42.952-11.039 0-20.007-19.26-20.007-42.952 0-23.725 8.968-42.949 20.007-42.949zM585.25 577.959c-8.181 0-15.865-2.071-22.726-5.43-15.544 26.085-63.424 48.488-123.452 48.488-59.992 0-107.909-22.404-123.452-48.488-6.86 3.359-14.544 5.43-22.762 5.43v-21.189c16.224 0 29.443-12.148 29.443-27.047h21.152c0 11.112-4.178 21.331-10.863 29.48 7.22 18.039 50.311 40.625 106.482 40.625s99.263-22.583 106.446-40.625c-6.681-8.148-10.826-18.368-10.826-29.48h21.152c0 14.899 13.219 27.047 29.406 27.047v21.189zM829.834 117.307c-32.232-32.232-70.965-48.309-116.343-48.309h-548.839c-45.378 0-84.111 16.077-116.343 48.309-32.228 32.159-48.309 70.965-48.309 116.343v548.839c0 45.378 16.081 84.185 48.309 116.413 32.232 32.089 71.035 48.24 116.343 48.24h548.839c45.378 0 84.111-16.151 116.343-48.309 32.228-32.232 48.309-70.965 48.309-116.343v-548.839c0-45.378-16.081-84.185-48.309-116.343zM737.146 724.246c-2.857 10.113-14.434 16.652-28.979 19.15-11.72 2.075-6.933 3.966-7.145 14.438-0.285 15.723-5.931 28.083-19.33 36.48-10.113 6.29-21.797 6.791-33.018 6.363-15.47-0.464-31.408-8.148-35.338-17.332-4.647-10.826 0.571-17.867 4.859-25.62 5.467-9.93 2.788-19.901-4.325-28.192-7.68-9.004-26.619-28.441-37.372-39.911-38.2 28.979-85.722 46.418-137.389 46.418-51.704 0-99.226-17.439-137.462-46.418-10.79 11.471-29.655 30.907-37.372 39.911-7.149 8.291-9.792 18.262-4.288 28.192 4.248 7.753 9.433 14.793 4.859 25.62-3.966 9.183-19.905 16.867-35.338 17.332-11.258 0.428-22.905-0.073-33.055-6.363-13.363-8.397-19.077-20.757-19.366-36.48-0.176-10.472 4.647-12.363-7.072-14.438-14.581-2.499-26.158-9.037-29.015-19.15-2.821-10.183-1.394-18.189 2.466-27.262 6.359-11.756 11.862-14.116 22.118-17.295 8.862-2.678 24.369-1.427 37.804 3.754 3.036 1.215 5.789 3.143 8.682 4.716 8.682 4.643 13.9 3.751 20.475-3.29 3.824-4.109 15.723-14.862 32.016-30.3-33.303-39.626-53.461-90.686-53.461-146.5 0-55.776 20.117-106.837 53.461-146.464-16.293-15.437-28.192-26.194-32.016-30.303-6.575-7.072-11.793-7.933-20.475-3.25-2.894 1.537-5.646 3.429-8.682 4.679-13.436 5.145-28.942 6.432-37.804 3.718-10.256-3.147-15.759-5.54-22.118-17.295-3.86-9.041-5.288-17.080-2.466-27.262 2.857-10.077 14.434-16.615 29.015-19.118 11.72-2.071 6.897-3.966 7.072-14.471 0.289-15.683 6.004-28.086 19.366-36.447 10.15-6.323 21.797-6.824 33.055-6.359 15.434 0.501 31.371 8.112 35.338 17.328 4.573 10.863-0.607 17.867-4.859 25.586-5.503 10.004-2.861 19.938 4.288 28.225 7.717 9.004 26.582 28.445 37.372 39.915 38.236-28.979 85.758-46.418 137.462-46.418 51.668 0 99.189 17.439 137.389 46.381 10.753-11.435 29.655-30.874 37.339-39.878 7.145-8.287 9.824-18.222 4.317-28.192-4.248-7.753-9.47-14.756-4.822-25.62 3.93-9.217 19.868-16.827 35.301-17.328 11.221-0.428 22.868 0.073 33.018 6.359 13.399 8.397 19.081 20.761 19.366 36.483 0.212 10.468-4.61 12.363 7.072 14.434 14.581 2.502 26.194 9.041 29.015 19.154 2.824 10.183 1.394 18.185-2.466 27.262-6.359 11.756-11.862 14.113-22.122 17.259-8.821 2.715-24.369 1.464-37.767-3.718-3.036-1.215-5.789-3.143-8.682-4.679-8.682-4.683-13.937-3.787-20.508 3.25-3.791 4.109-15.653 14.866-31.983 30.303 33.344 39.626 53.42 90.686 53.42 146.464 0 55.813-20.080 106.837-53.42 146.5 16.333 15.437 28.229 26.191 31.983 30.3 6.608 7.039 11.826 7.933 20.508 3.29 2.93-1.574 5.683-3.502 8.719-4.716 13.363-5.182 28.905-6.432 37.767-3.754 10.293 3.18 15.759 5.54 22.118 17.295 3.868 9.074 5.331 17.080 2.473 27.262z"></path>
</svg>
